Coordinates
version=1
nRows=17
nColumns=40
inDegrees=yes

Units are S.I. units (second, meters, Newtons, ...)
If the header above contains a line with 'inDegrees', this indicates whether rotational values are in degrees (yes) or radians (no).

endheader
time	pelvis_tilt	pelvis_list	pelvis_rotation	pelvis_tx	pelvis_ty	pelvis_tz	hip_flexion_r	hip_adduction_r	hip_rotation_r	knee_angle_r	knee_angle_r_beta	ankle_angle_r	subtalar_angle_r	mtp_angle_r	hip_flexion_l	hip_adduction_l	hip_rotation_l	knee_angle_l	knee_angle_l_beta	ankle_angle_l	subtalar_angle_l	mtp_angle_l	lumbar_extension	lumbar_bending	lumbar_rotation	arm_flex_r	arm_add_r	arm_rot_r	elbow_flex_r	pro_sup_r	wrist_flex_r	wrist_dev_r	arm_flex_l	arm_add_l	arm_rot_l	elbow_flex_l	pro_sup_l	wrist_flex_l	wrist_dev_l
      0.42000000	      2.47249061	     -8.67010123	     89.60824269	      0.21471517	      0.99205085	      1.46175759	     18.98835747	      5.92036637	     -1.24131517	     14.23346228	      0.24842078	      2.87932991	     -0.00000000	      0.00000000	     22.09570483	     -2.97474519	      0.92518335	     57.27229630	      0.99959014	     -6.20088435	     -0.00000000	     -0.00000000	     -1.61140107	      1.72689206	     -2.91538694	      0.00000000	     -0.00000000	     -0.00000000	      0.00000000	      0.00000000	     -0.00000000	      0.00000000	     -0.00000000	     -0.00000000	      0.00000000	      0.00000000	      0.00000000	      0.00000000	     -0.00000000
      0.43000000	      2.11006424	     -8.94965728	     89.55510445	      0.21533323	      0.99443610	      1.44344971	     17.45801242	      5.57854021	     -1.43706214	     13.06910011	      0.22809883	      3.40934366	      0.00000000	      0.00000000	     23.97630716	     -2.64489169	      0.83281176	     55.94078066	      0.97635081	     -5.09187770	      0.00000000	      0.00000000	     -1.15772425	      1.23204544	     -2.78872624	      0.00000000	      0.00000000	      0.00000000	      0.00000000	      0.00000000	      0.00000000	      0.00000000	      0.00000000	      0.00000000	      0.00000000	      0.00000000	      0.00000000	      0.00000000	      0.00000000
      0.44000000	      1.57243988	     -8.95749872	     89.51003727	      0.21570509	      0.99669253	      1.42498868	     15.53455117	      5.09267345	     -0.92314203	     11.73548126	      0.20482279	      3.70952280	      0.00000000	      0.00000000	     25.44038287	     -2.00281181	      0.91398215	     54.31479051	      0.94797193	     -3.10960534	      0.00000000	      0.00000000	     -1.03274400	      0.55168595	     -2.94116956	      0.00000000	      0.00000000	      0.00000000	      0.00000000	      0.00000000	      0.00000000	      0.00000000	      0.00000000	      0.00000000	      0.00000000	      0.00000000	      0.00000000	      0.00000000	      0.00000000
      0.45000000	      1.19085345	     -8.79948031	     89.42874867	      0.21615624	      0.99871871	      1.40628318	     13.44332256	      4.73250340	     -0.75709591	     10.40884043	      0.18166854	      4.09487259	      0.00000000	      0.00000000	     26.53794987	     -1.62850821	      0.82697721	     52.29501692	      0.91272023	     -1.86274499	      0.00000000	      0.00000000	     -1.08755165	      0.05141797	     -2.83082085	      0.00000000	      0.00000000	      0.00000000	      0.00000000	      0.00000000	      0.00000000	      0.00000000	      0.00000000	      0.00000000	      0.00000000	      0.00000000	      0.00000000	      0.00000000	      0.00000000
      0.46000000	      0.88311722	     -9.06469168	     89.33131240	      0.21659685	      0.99950396	      1.38793940	     11.97390827	      4.44489281	     -0.54185551	      9.35998643	      0.16336258	      4.60519107	      0.00000000	      0.00000000	     28.05914057	     -1.35166375	      0.74971663	     50.11011074	      0.87458642	     -0.80827678	      0.00000000	      0.00000000	     -0.67022543	     -0.33992485	     -2.72891875	      0.00000000	      0.00000000	      0.00000000	      0.00000000	      0.00000000	      0.00000000	      0.00000000	      0.00000000	      0.00000000	      0.00000000	      0.00000000	      0.00000000	      0.00000000	      0.00000000
      0.47000000	      0.59282932	     -8.91905777	     89.18310101	      0.21704742	      1.00032939	      1.36926101	      9.99454344	      4.17262516	     -0.22796684	      8.19868253	      0.14309400	      5.07512313	     -0.00000000	      0.00000000	     28.93812248	     -1.12373363	      0.61537825	     47.55365090	      0.82996778	      0.13646772	      0.00000000	     -0.00000000	     -0.73775122	     -0.72258107	     -2.55278100	      0.00000000	     -0.00000000	      0.00000000	      0.00000000	      0.00000000	      0.00000000	     -0.00000000	      0.00000000	     -0.00000000	     -0.00000000	      0.00000000	      0.00000000	     -0.00000000	      0.00000000
      0.48000000	      0.39877960	     -9.07323211	     88.99823187	      0.21753461	      1.00007047	      1.35083708	      8.47001492	      4.00398538	      0.14925443	      7.26931782	      0.12687353	      5.65115626	      0.00000000	      0.00000000	     30.08802115	     -1.03842171	      0.45439189	     44.83983138	      0.78260269	      0.90042635	      0.00000000	      0.00000000	     -0.48146572	     -0.97334136	     -2.37853511	      0.00000000	      0.00000000	      0.00000000	      0.00000000	      0.00000000	      0.00000000	      0.00000000	      0.00000000	      0.00000000	      0.00000000	      0.00000000	      0.00000000	      0.00000000	      0.00000000
      0.49000000	      0.30170831	     -9.18081247	     88.78910085	      0.21806605	      0.99923638	      1.33231407	      6.90608158	      3.92794492	      0.45299021	      6.36577559	      0.11110374	      6.27917755	     -0.00000000	      0.00000000	     31.08482978	     -1.09351982	      0.25246040	     41.93326583	      0.73187355	      1.44212045	     -0.00000000	     -0.00000000	     -0.26289364	     -1.11604372	     -2.03871988	     -0.00000000	      0.00000000	      0.00000000	      0.00000000	      0.00000000	      0.00000000	     -0.00000000	      0.00000000	      0.00000000	      0.00000000	      0.00000000	      0.00000000	     -0.00000000	     -0.00000000
      0.50000000	      0.21207907	     -9.07055257	     88.48531101	      0.21868691	      0.99811635	      1.31369909	      5.10997932	      3.86246108	      0.93879923	      5.48302141	      0.09569678	      6.91732301	      0.00000000	      0.00000000	     31.69166902	     -1.22042230	     -0.07556345	     38.73536159	      0.67605960	      1.77728916	      0.00000000	      0.00000000	     -0.34157710	     -1.24735792	     -1.68924739	      0.00000000	      0.00000000	      0.00000000	      0.00000000	      0.00000000	      0.00000000	      0.00000000	      0.00000000	      0.00000000	      0.00000000	      0.00000000	      0.00000000	      0.00000000	      0.00000000
      0.51000000	      0.21135094	     -8.94533104	     88.10714247	      0.21937258	      0.99642925	      1.29510796	      3.34888681	      3.87715307	      1.36798757	      4.69060447	      0.08186649	      7.54322138	      0.00000000	      0.00000000	     32.19515197	     -1.50288829	     -0.52903872	     35.38435850	      0.61757356	      1.93879405	      0.00000000	      0.00000000	     -0.46433016	     -1.25379842	     -1.21570565	      0.00000000	      0.00000000	      0.00000000	      0.00000000	      0.00000000	      0.00000000	      0.00000000	      0.00000000	      0.00000000	      0.00000000	      0.00000000	      0.00000000	      0.00000000	      0.00000000
      0.52000000	      0.27123894	     -8.79016111	     87.75098088	      0.22003794	      0.99416994	      1.27641565	      1.56548558	      3.94184537	      1.78710577	      3.94610202	      0.06887247	      8.17870034	      0.00000000	      0.00000000	     32.58677704	     -1.85319018	     -1.02445438	     31.90193588	      0.55679382	      1.97443535	      0.00000000	      0.00000000	     -0.60574050	     -1.21343594	     -0.70885140	      0.00000000	      0.00000000	      0.00000000	      0.00000000	      0.00000000	      0.00000000	      0.00000000	      0.00000000	      0.00000000	      0.00000000	      0.00000000	      0.00000000	      0.00000000	      0.00000000
      0.53000000	      0.37014316	     -8.78806933	     87.35038577	      0.22071473	      0.99118463	      1.25783108	      0.01042927	      4.03665029	      2.23718036	      3.32584371	      0.05804692	      8.93371900	      0.00000000	      0.00000000	     33.07693942	     -2.27090541	     -1.60396697	     28.31066835	      0.49411438	      1.81201735	      0.00000000	      0.00000000	     -0.60089873	     -1.11869548	     -0.22006707	      0.00000000	      0.00000000	      0.00000000	      0.00000000	      0.00000000	      0.00000000	      0.00000000	      0.00000000	      0.00000000	      0.00000000	      0.00000000	      0.00000000	      0.00000000	      0.00000000
      0.54000000	      0.50689898	     -8.74225636	     86.93042337	      0.22134844	      0.98778567	      1.23918731	     -1.57700545	      4.15079733	      2.64704054	      2.74710936	      0.04794610	      9.66640534	     -0.00000000	     -0.00000000	     33.43682506	     -2.71840839	     -2.19294088	     24.63483780	      0.42995903	      1.60650455	      0.00000000	      0.00000000	     -0.66350804	     -0.97884901	      0.35850838	      0.00000000	      0.00000000	     -0.00000000	      0.00000000	      0.00000000	      0.00000000	      0.00000000	      0.00000000	      0.00000000	      0.00000000	      0.00000000	      0.00000000	      0.00000000	     -0.00000000
      0.55000000	      0.67350995	     -8.64791700	     86.49547552	      0.22195563	      0.98403330	      1.22046047	     -3.19227328	      4.27108440	      3.04122253	      2.23751432	      0.03905199	     10.36890870	      0.00000000	      0.00000000	     33.66485800	     -3.19000539	     -2.83870884	     20.92169154	      0.36515240	      1.39513492	      0.00000000	      0.00000000	     -0.79783223	     -0.81647180	      0.97448173	      0.00000000	      0.00000000	      0.00000000	      0.00000000	      0.00000000	      0.00000000	      0.00000000	      0.00000000	      0.00000000	      0.00000000	      0.00000000	      0.00000000	      0.00000000	      0.00000000
      0.56000000	      0.86082955	     -8.59463752	     86.07417407	      0.22244028	      0.97990532	      1.20164988	     -4.73061042	      4.38674875	      3.41236967	      1.80965660	      0.03158447	     11.06437678	      0.00000000	      0.00000000	     33.87452581	     -3.64037937	     -3.42823835	     17.23783437	      0.30085697	      1.23271640	      0.00000000	      0.00000000	     -0.89374307	     -0.62801153	      1.59186243	      0.00000000	      0.00000000	      0.00000000	      0.00000000	      0.00000000	      0.00000000	      0.00000000	      0.00000000	      0.00000000	      0.00000000	      0.00000000	      0.00000000	      0.00000000	      0.00000000
      0.57000000	      1.05848609	     -8.61226239	     85.62952816	      0.22286985	      0.97543565	      1.18277974	     -6.13884046	      4.48729201	      3.78028187	      1.50709450	      0.02630376	     11.80179711	      0.00000000	     -0.00000000	     34.09183681	     -4.08454700	     -3.94158616	     13.64890581	      0.23821835	      1.08389191	      0.00000000	     -0.00000000	     -0.91706812	     -0.42396978	      2.20583166	     -0.00000000	      0.00000000	      0.00000000	      0.00000000	      0.00000000	     -0.00000000	      0.00000000	     -0.00000000	      0.00000000	      0.00000000	      0.00000000	      0.00000000	      0.00000000	     -0.00000000
      0.58000000	      1.26025209	     -8.65110223	     85.23256686	      0.22312991	      0.97077447	      1.16374989	     -7.48281581	      4.56574150	      4.14223026	      1.30903862	      0.02284703	     12.46128931	      0.00000000	      0.00000000	     34.28876044	     -4.47224659	     -4.30212330	     10.26313587	      0.17912551	      1.10428967	      0.00000000	      0.00000000	     -0.91674208	     -0.21061299	      2.82797035	      0.00000000	     -0.00000000	      0.00000000	      0.00000000	      0.00000000	      0.00000000	     -0.00000000	     -0.00000000	     -0.00000000	     -0.00000000	      0.00000000	      0.00000000	     -0.00000000	     -0.00000000
